<mxfile host="Electron" agent="Mozilla/5.0 (Windows NT 10.0; Win64; x64) AppleWebKit/537.36 (KHTML, like Gecko) draw.io/24.5.3 Chrome/124.0.6367.207 Electron/30.0.6 Safari/537.36" modified="2024-08-21T09:51:43.115Z" etag="YExVHPGzP3UjMCc5OkRD" version="24.5.3" type="device">
  <diagram id="s0dt55qKUuDZjFwp63d6" name="Page-1">
    <mxGraphModel dx="2482" dy="1476" grid="1" gridSize="10" guides="1" tooltips="1" connect="1" arrows="1" fold="1" page="1" pageScale="1" pageWidth="850" pageHeight="1100" math="0" shadow="0">
      <root>
        <mxCell id="0" />
        <mxCell id="1" parent="0" />
        <mxCell id="FRnl1vGxgCyEHnlj_Q-G-1" value="" style="rounded=0;whiteSpace=wrap;html=1;fillColor=#F5F5F5;strokeColor=#000000;fontColor=#333333;movable=1;resizable=1;rotatable=1;deletable=1;editable=1;locked=0;connectable=1;" parent="1" vertex="1">
          <mxGeometry x="-1540" y="-1000" width="2170" height="1030" as="geometry" />
        </mxCell>
        <mxCell id="woI4gNU64EpTCYvmqdyd-2" style="edgeStyle=orthogonalEdgeStyle;rounded=0;orthogonalLoop=1;jettySize=auto;html=1;entryX=0;entryY=0.5;entryDx=0;entryDy=0;" parent="1" source="d86S9ypuE0y8z_9dzZQ--34" target="hblpuTxCWOAWC8H00vqq-7" edge="1">
          <mxGeometry relative="1" as="geometry">
            <mxPoint x="-1520.00000265625" y="-641.5999999999999" as="sourcePoint" />
          </mxGeometry>
        </mxCell>
        <mxCell id="Iy-bXk118ixpe8IklF_D-2" value="&lt;p style=&quot;line-height: 70% ; font-size: 20px&quot;&gt;&lt;/p&gt;&lt;b style=&quot;font-size: 25px;&quot;&gt;&lt;font style=&quot;font-size: 25px;&quot;&gt;&lt;br&gt;&lt;br&gt;&lt;br&gt;&lt;br&gt;&lt;br&gt;&lt;br&gt;&lt;br&gt;&lt;br&gt;&lt;br&gt;&lt;br&gt;&lt;br&gt;&lt;br&gt;&lt;br&gt;&lt;br&gt;BCCS_GW&lt;/font&gt;&lt;/b&gt;&lt;br&gt;&lt;pre style=&quot;background-color: rgb(255 , 255 , 255) ; font-family: &amp;quot;jetbrains mono&amp;quot; , monospace ; font-size: 9.8pt&quot;&gt;&lt;/pre&gt;" style="rounded=0;whiteSpace=wrap;html=1;strokeColor=#b85450;fillColor=#f8cecc;" parent="1" vertex="1">
          <mxGeometry x="-1202" y="-980" width="430" height="480" as="geometry" />
        </mxCell>
        <mxCell id="Iy-bXk118ixpe8IklF_D-3" value="&lt;br&gt;&lt;br&gt;&lt;font style=&quot;font-weight: bold; font-size: 18px;&quot;&gt;LB&lt;/font&gt;&lt;br&gt;&lt;span style=&quot;font-size:11.0pt;font-family:&amp;quot;Aptos&amp;quot;,sans-serif;&lt;br/&gt;mso-fareast-font-family:Calibri;mso-fareast-theme-font:minor-latin;mso-bidi-font-family:&lt;br/&gt;Calibri;mso-ligatures:standardcontextual;mso-ansi-language:EN-US;mso-fareast-language:&lt;br/&gt;EN-US;mso-bidi-language:AR-SA&quot;&gt;10.79.7.100&lt;/span&gt;&lt;span style=&quot;font-size: 14px&quot;&gt;:9300&lt;br&gt;&lt;/span&gt;&lt;span style=&quot;font-size: 14px&quot;&gt;&lt;b&gt;&lt;br&gt;&lt;/b&gt;&lt;/span&gt;" style="rounded=0;whiteSpace=wrap;html=1;fillColor=#e1d5e7;strokeColor=#9673a6;" parent="1" vertex="1">
          <mxGeometry x="-1175" y="-694.3199999999999" width="180.75" height="96.32" as="geometry" />
        </mxCell>
        <mxCell id="Iy-bXk118ixpe8IklF_D-4" value="" style="aspect=fixed;perimeter=ellipsePerimeter;html=1;align=center;shadow=0;dashed=0;fontColor=#4277BB;labelBackgroundColor=#ffffff;fontSize=12;spacingTop=3;image;image=img/lib/ibm/infrastructure/load_balancing_routing.svg;rotation=-180;" parent="1" vertex="1">
          <mxGeometry x="-1170" y="-684.8399999999997" width="48" height="48" as="geometry" />
        </mxCell>
        <mxCell id="Iy-bXk118ixpe8IklF_D-5" value="" style="endArrow=classic;html=1;strokeColor=#000000;entryX=0;entryY=0.5;entryDx=0;entryDy=0;exitX=1;exitY=0.5;exitDx=0;exitDy=0;" parent="1" source="Iy-bXk118ixpe8IklF_D-3" target="Iy-bXk118ixpe8IklF_D-6" edge="1">
          <mxGeometry width="50" height="50" relative="1" as="geometry">
            <mxPoint x="-1008" y="-611.8199999999999" as="sourcePoint" />
            <mxPoint x="-959.5" y="-618.3199999999997" as="targetPoint" />
          </mxGeometry>
        </mxCell>
        <mxCell id="Iy-bXk118ixpe8IklF_D-6" value="&lt;br&gt;&lt;br&gt;&lt;br&gt;&lt;br&gt;&lt;br&gt;&lt;br&gt;&lt;br&gt;&lt;br&gt;&lt;br&gt;&lt;br&gt;&lt;b style=&quot;&quot;&gt;&lt;font style=&quot;font-size: 18px;&quot;&gt;BCCS_GW&lt;/font&gt;&lt;/b&gt;" style="rounded=0;whiteSpace=wrap;html=1;fillColor=#d5e8d4;strokeColor=#82b366;" parent="1" vertex="1">
          <mxGeometry x="-937" y="-740.99" width="150" height="188.99" as="geometry" />
        </mxCell>
        <mxCell id="Iy-bXk118ixpe8IklF_D-7" value="&lt;span style=&quot;font-size:11.0pt;font-family:&amp;quot;Aptos&amp;quot;,sans-serif;&lt;br/&gt;mso-fareast-font-family:Calibri;mso-fareast-theme-font:minor-latin;mso-bidi-font-family:&lt;br/&gt;Calibri;mso-ligatures:standardcontextual;mso-ansi-language:EN-US;mso-fareast-language:&lt;br/&gt;EN-US;mso-bidi-language:AR-SA&quot;&gt;10.79.7.52 :9300&lt;/span&gt;&lt;br&gt;&lt;span style=&quot;font-size:11.0pt;font-family:&amp;quot;Aptos&amp;quot;,sans-serif;&lt;br/&gt;mso-fareast-font-family:Calibri;mso-fareast-theme-font:minor-latin;mso-bidi-font-family:&lt;br/&gt;Calibri;mso-ligatures:standardcontextual;mso-ansi-language:EN-US;mso-fareast-language:&lt;br/&gt;EN-US;mso-bidi-language:AR-SA&quot;&gt;10.79.7.52 :9301&lt;/span&gt;&lt;br&gt;&lt;span style=&quot;font-size:11.0pt;font-family:&amp;quot;Aptos&amp;quot;,sans-serif;&lt;br/&gt;mso-fareast-font-family:Calibri;mso-fareast-theme-font:minor-latin;mso-bidi-font-family:&lt;br/&gt;Calibri;mso-ligatures:standardcontextual;mso-ansi-language:EN-US;mso-fareast-language:&lt;br/&gt;EN-US;mso-bidi-language:AR-SA&quot;&gt;10.79.7.52 :9302&lt;/span&gt;" style="rounded=0;whiteSpace=wrap;html=1;fontSize=14;" parent="1" vertex="1">
          <mxGeometry x="-927" y="-728.99" width="130" height="60" as="geometry" />
        </mxCell>
        <mxCell id="mrfVPqvK69PjAH8VPfI9-17" value="" style="rounded=0;orthogonalLoop=1;jettySize=auto;html=1;entryX=0;entryY=0.5;entryDx=0;entryDy=0;exitX=1;exitY=0.5;exitDx=0;exitDy=0;" parent="1" source="hblpuTxCWOAWC8H00vqq-7" target="Iy-bXk118ixpe8IklF_D-3" edge="1">
          <mxGeometry relative="1" as="geometry">
            <mxPoint x="-1220" y="-641" as="sourcePoint" />
            <mxPoint x="-1180" y="-641.0000000000002" as="targetPoint" />
          </mxGeometry>
        </mxCell>
        <mxCell id="d86S9ypuE0y8z_9dzZQ--6" value="&lt;p style=&quot;line-height: 70% ; font-size: 20px&quot;&gt;&lt;/p&gt;&lt;br&gt;&lt;pre style=&quot;background-color: rgb(255 , 255 , 255) ; font-family: &amp;#34;jetbrains mono&amp;#34; , monospace ; font-size: 9.8pt&quot;&gt;&lt;/pre&gt;" style="rounded=0;whiteSpace=wrap;html=1;strokeColor=#000000;fillColor=#f8cecc;" parent="1" vertex="1">
          <mxGeometry x="-740" y="-980" width="1350" height="990" as="geometry" />
        </mxCell>
        <mxCell id="d86S9ypuE0y8z_9dzZQ--32" value="" style="group" parent="1" vertex="1" connectable="0">
          <mxGeometry x="-1700" y="-736.99" width="140" height="220" as="geometry" />
        </mxCell>
        <mxCell id="d86S9ypuE0y8z_9dzZQ--33" value="" style="verticalLabelPosition=bottom;verticalAlign=top;html=1;shadow=0;dashed=0;strokeWidth=1;shape=mxgraph.android.phone2;strokeColor=#6c8ebf;fillColor=#dae8fc;" parent="d86S9ypuE0y8z_9dzZQ--32" vertex="1">
          <mxGeometry x="10.058785107772696" width="110.64663618549966" height="181.9188921859545" as="geometry" />
        </mxCell>
        <mxCell id="d86S9ypuE0y8z_9dzZQ--34" value="&lt;font style=&quot;font-size: 20px;&quot;&gt;mBCCS&lt;/font&gt;" style="text;html=1;align=center;verticalAlign=middle;resizable=0;points=[];autosize=1;strokeColor=none;fillColor=none;fontSize=14;fontStyle=1" parent="d86S9ypuE0y8z_9dzZQ--32" vertex="1">
          <mxGeometry x="16.165536655596544" y="71.98653791730571" width="100" height="40" as="geometry" />
        </mxCell>
        <mxCell id="d86S9ypuE0y8z_9dzZQ--54" value="&lt;b style=&quot;font-size: 18px;&quot;&gt;DB PRECUS&lt;/b&gt;&lt;br&gt;&lt;font style=&quot;font-size: 14px;&quot;&gt;10.79.121.81:1521&lt;br&gt;10.79.121.83:1521&lt;/font&gt;" style="shape=cylinder3;whiteSpace=wrap;html=1;boundedLbl=1;backgroundOutline=1;size=15;strokeColor=#d79b00;fillColor=#1BA1E2;" parent="1" vertex="1">
          <mxGeometry x="-590" y="-329.99999999999955" width="130" height="150" as="geometry" />
        </mxCell>
        <mxCell id="d86S9ypuE0y8z_9dzZQ--55" value="&lt;font style=&quot;font-size: 18px;&quot;&gt;&lt;b&gt;DB PAYPOS&lt;/b&gt;&lt;/font&gt;&lt;br&gt;&lt;font style=&quot;font-size: 14px;&quot;&gt;10.79.121.111:1521&lt;br&gt;10.79.121.113:1521&lt;/font&gt;" style="shape=cylinder3;whiteSpace=wrap;html=1;boundedLbl=1;backgroundOutline=1;size=15;strokeColor=#d79b00;fillColor=#1BA1E2;" parent="1" vertex="1">
          <mxGeometry x="-450" y="-330" width="130" height="150" as="geometry" />
        </mxCell>
        <mxCell id="d86S9ypuE0y8z_9dzZQ--56" value="&lt;b style=&quot;font-size: 18px;&quot;&gt;DB SALE&lt;br&gt;&lt;/b&gt;&lt;font style=&quot;font-size: 14px;&quot;&gt;10.79.121.131:1521&lt;br&gt;10.79.121.133:1521&lt;/font&gt;" style="shape=cylinder3;whiteSpace=wrap;html=1;boundedLbl=1;backgroundOutline=1;size=15;strokeColor=#d79b00;fillColor=#1BA1E2;" parent="1" vertex="1">
          <mxGeometry x="-309.00000000000006" y="-330" width="130" height="150" as="geometry" />
        </mxCell>
        <mxCell id="d86S9ypuE0y8z_9dzZQ--57" style="rounded=0;orthogonalLoop=1;jettySize=auto;html=1;exitX=0.5;exitY=1;exitDx=0;exitDy=0;entryX=0.5;entryY=0;entryDx=0;entryDy=0;entryPerimeter=0;" parent="1" source="l0j6yrxoB1ChM4racw-r-4" target="d86S9ypuE0y8z_9dzZQ--54" edge="1">
          <mxGeometry relative="1" as="geometry">
            <mxPoint x="-219.72800000000007" y="-692.9679999999998" as="sourcePoint" />
          </mxGeometry>
        </mxCell>
        <mxCell id="d86S9ypuE0y8z_9dzZQ--58" style="rounded=0;orthogonalLoop=1;jettySize=auto;html=1;entryX=0.5;entryY=0;entryDx=0;entryDy=0;entryPerimeter=0;exitX=0.5;exitY=1;exitDx=0;exitDy=0;" parent="1" source="l0j6yrxoB1ChM4racw-r-4" target="d86S9ypuE0y8z_9dzZQ--55" edge="1">
          <mxGeometry relative="1" as="geometry">
            <mxPoint x="-219.72800000000007" y="-694.6320000000001" as="sourcePoint" />
          </mxGeometry>
        </mxCell>
        <mxCell id="d86S9ypuE0y8z_9dzZQ--59" style="rounded=0;orthogonalLoop=1;jettySize=auto;html=1;entryX=0.5;entryY=0;entryDx=0;entryDy=0;entryPerimeter=0;exitX=0.5;exitY=1;exitDx=0;exitDy=0;" parent="1" source="l0j6yrxoB1ChM4racw-r-4" target="d86S9ypuE0y8z_9dzZQ--56" edge="1">
          <mxGeometry relative="1" as="geometry">
            <mxPoint x="-217.23199999999952" y="-694.6320000000001" as="sourcePoint" />
          </mxGeometry>
        </mxCell>
        <mxCell id="sLYKi-Rtx4q5VQcG5aJv-1" value="&lt;b style=&quot;font-size: 18px;&quot;&gt;DB RA&lt;br&gt;&lt;/b&gt;&lt;div&gt;&lt;span style=&quot;font-size: 14px;&quot;&gt;10.79.121.91:1521&lt;/span&gt;&lt;/div&gt;&lt;div&gt;&lt;span style=&quot;font-size: 14px;&quot;&gt;10.79.121.93&lt;/span&gt;&lt;span style=&quot;font-size: 14px; background-color: initial;&quot;&gt;:1521&lt;/span&gt;&lt;/div&gt;" style="shape=cylinder3;whiteSpace=wrap;html=1;boundedLbl=1;backgroundOutline=1;size=15;strokeColor=#d79b00;fillColor=#1BA1E2;" parent="1" vertex="1">
          <mxGeometry x="-167.00000000000006" y="-330" width="130" height="150" as="geometry" />
        </mxCell>
        <mxCell id="sLYKi-Rtx4q5VQcG5aJv-2" style="rounded=0;orthogonalLoop=1;jettySize=auto;html=1;entryX=0.5;entryY=0;entryDx=0;entryDy=0;entryPerimeter=0;exitX=0.5;exitY=1;exitDx=0;exitDy=0;" parent="1" source="l0j6yrxoB1ChM4racw-r-4" target="sLYKi-Rtx4q5VQcG5aJv-1" edge="1">
          <mxGeometry relative="1" as="geometry">
            <mxPoint x="-201" y="-812.3899999999999" as="sourcePoint" />
          </mxGeometry>
        </mxCell>
        <mxCell id="z4LNvF1zrKQnBLHQ0fTR-1" value="" style="group" parent="1" vertex="1" connectable="0">
          <mxGeometry x="-1503" y="-708.59" width="270" height="125" as="geometry" />
        </mxCell>
        <mxCell id="hblpuTxCWOAWC8H00vqq-7" value="&lt;div&gt;&lt;font style=&quot;&quot;&gt;&lt;font size=&quot;1&quot; style=&quot;&quot;&gt;&lt;b style=&quot;font-size: 18px;&quot;&gt;&lt;br&gt;&lt;/b&gt;&lt;/font&gt;&lt;/font&gt;&lt;/div&gt;&lt;font style=&quot;&quot;&gt;&lt;font size=&quot;1&quot; style=&quot;&quot;&gt;&lt;b style=&quot;font-size: 18px;&quot;&gt;WAF&lt;br&gt;&lt;/b&gt;&lt;/font&gt;&lt;/font&gt;&lt;div&gt;&lt;font style=&quot;&quot;&gt;&lt;font style=&quot;font-size: 14px;&quot;&gt;&lt;br&gt;&lt;/font&gt;&lt;/font&gt;&lt;/div&gt;&lt;div&gt;&lt;span style=&quot;font-family: Aptos, sans-serif;&quot;&gt;&lt;font style=&quot;font-size: 18px;&quot;&gt;https://mbccs.metfone.com.kh&lt;/font&gt;&lt;/span&gt;&lt;br&gt;&lt;/div&gt;" style="rounded=0;whiteSpace=wrap;html=1;fillColor=#60a917;strokeColor=#2D7600;fontColor=#ffffff;" parent="z4LNvF1zrKQnBLHQ0fTR-1" vertex="1">
          <mxGeometry width="270" height="125" as="geometry" />
        </mxCell>
        <mxCell id="jo9Ujl8i2jYK4UsTIMeg-1" value="" style="image;html=1;image=img/lib/clip_art/networking/Firewall_02_128x128.png" parent="z4LNvF1zrKQnBLHQ0fTR-1" vertex="1">
          <mxGeometry x="190" y="12.660000000000082" width="60" height="59.5" as="geometry" />
        </mxCell>
        <mxCell id="yHcybCInTjZqwP-2r2IU-3" value="&lt;span style=&quot;font-size:11.0pt;font-family:&amp;quot;Aptos&amp;quot;,sans-serif;&lt;br/&gt;mso-fareast-font-family:Calibri;mso-fareast-theme-font:minor-latin;mso-bidi-font-family:&lt;br/&gt;Calibri;mso-ligatures:standardcontextual;mso-ansi-language:EN-US;mso-fareast-language:&lt;br/&gt;EN-US;mso-bidi-language:AR-SA&quot;&gt;10.79.7.53 :9300&lt;/span&gt;&lt;br&gt;&lt;span style=&quot;font-size:11.0pt;font-family:&amp;quot;Aptos&amp;quot;,sans-serif;&lt;br/&gt;mso-fareast-font-family:Calibri;mso-fareast-theme-font:minor-latin;mso-bidi-font-family:&lt;br/&gt;Calibri;mso-ligatures:standardcontextual;mso-ansi-language:EN-US;mso-fareast-language:&lt;br/&gt;EN-US;mso-bidi-language:AR-SA&quot;&gt;10.79.7.53 :9301&lt;/span&gt;&lt;br&gt;&lt;span style=&quot;font-size:11.0pt;font-family:&amp;quot;Aptos&amp;quot;,sans-serif;&lt;br/&gt;mso-fareast-font-family:Calibri;mso-fareast-theme-font:minor-latin;mso-bidi-font-family:&lt;br/&gt;Calibri;mso-ligatures:standardcontextual;mso-ansi-language:EN-US;mso-fareast-language:&lt;br/&gt;EN-US;mso-bidi-language:AR-SA&quot;&gt;10.79.7.53 :9302&lt;/span&gt;" style="rounded=0;whiteSpace=wrap;html=1;fontSize=14;" parent="1" vertex="1">
          <mxGeometry x="-927" y="-656.99" width="130" height="60" as="geometry" />
        </mxCell>
        <mxCell id="yHcybCInTjZqwP-2r2IU-7" value="" style="endArrow=classic;html=1;rounded=0;entryX=0.5;entryY=0;entryDx=0;entryDy=0;entryPerimeter=0;exitX=0.5;exitY=1;exitDx=0;exitDy=0;" parent="1" source="l0j6yrxoB1ChM4racw-r-4" target="yHcybCInTjZqwP-2r2IU-9" edge="1">
          <mxGeometry width="50" height="50" relative="1" as="geometry">
            <mxPoint x="-218.06399999999985" y="-693.8000000000002" as="sourcePoint" />
            <mxPoint x="-432.3100000000004" y="-840.1499999999996" as="targetPoint" />
          </mxGeometry>
        </mxCell>
        <mxCell id="yHcybCInTjZqwP-2r2IU-9" value="&lt;b style=&quot;font-size: 18px;&quot;&gt;DB NIMS&lt;/b&gt;&lt;div&gt;&lt;div&gt;&lt;span style=&quot;font-size: 14px;&quot;&gt;10.79.83.228&lt;/span&gt;&lt;/div&gt;&lt;div&gt;&lt;span style=&quot;font-size: 14px;&quot;&gt;10.79.83.226&lt;/span&gt;&lt;/div&gt;&lt;/div&gt;" style="shape=cylinder3;whiteSpace=wrap;html=1;boundedLbl=1;backgroundOutline=1;size=15;strokeColor=#d79b00;fillColor=#1BA1E2;" parent="1" vertex="1">
          <mxGeometry x="-730" y="-330" width="130" height="150" as="geometry" />
        </mxCell>
        <mxCell id="yHcybCInTjZqwP-2r2IU-10" style="rounded=0;orthogonalLoop=1;jettySize=auto;html=1;entryX=0;entryY=0.5;entryDx=0;entryDy=0;exitX=0.979;exitY=0.492;exitDx=0;exitDy=0;exitPerimeter=0;" parent="1" source="l0j6yrxoB1ChM4racw-r-5" target="l0j6yrxoB1ChM4racw-r-7" edge="1">
          <mxGeometry relative="1" as="geometry">
            <mxPoint x="-110" y="-646.1950000000002" as="sourcePoint" />
          </mxGeometry>
        </mxCell>
        <mxCell id="yHcybCInTjZqwP-2r2IU-11" style="rounded=0;orthogonalLoop=1;jettySize=auto;html=1;entryX=0;entryY=0.5;entryDx=0;entryDy=0;exitX=0.963;exitY=0.472;exitDx=0;exitDy=0;exitPerimeter=0;" parent="1" source="l0j6yrxoB1ChM4racw-r-5" target="yHcybCInTjZqwP-2r2IU-13" edge="1">
          <mxGeometry relative="1" as="geometry">
            <mxPoint x="-110" y="-646.1950000000002" as="sourcePoint" />
          </mxGeometry>
        </mxCell>
        <mxCell id="yHcybCInTjZqwP-2r2IU-12" style="rounded=0;orthogonalLoop=1;jettySize=auto;html=1;entryX=0;entryY=0.5;entryDx=0;entryDy=0;exitX=0.964;exitY=0.489;exitDx=0;exitDy=0;strokeColor=#000000;fontStyle=1;strokeWidth=1;exitPerimeter=0;" parent="1" source="l0j6yrxoB1ChM4racw-r-5" target="yHcybCInTjZqwP-2r2IU-14" edge="1">
          <mxGeometry relative="1" as="geometry">
            <mxPoint x="-110" y="-646.1950000000002" as="sourcePoint" />
          </mxGeometry>
        </mxCell>
        <mxCell id="yHcybCInTjZqwP-2r2IU-13" value="&lt;font style=&quot;font-size: 14px;&quot;&gt;&lt;span style=&quot;font-size: 18px;&quot;&gt;&lt;b&gt;Provisioning&lt;/b&gt;&lt;/span&gt;&lt;br&gt;&lt;div&gt;10.79.7.20:8000-10000&lt;/div&gt;&lt;div&gt;10.79.7.21:8000-10000&lt;br style=&quot;border-color: var(--border-color);&quot;&gt;10.79.7.22:&lt;span style=&quot;background-color: initial;&quot;&gt;8000-10000&lt;/span&gt;&lt;br&gt;&lt;/div&gt;&lt;div&gt;10.79.7.23:8000-10000&lt;br&gt;&lt;div&gt;&lt;br&gt;&lt;/div&gt;&lt;/div&gt;&lt;/font&gt;" style="rounded=0;whiteSpace=wrap;html=1;strokeColor=#6c8ebf;fillColor=#dae8fc;" parent="1" vertex="1">
          <mxGeometry x="114" y="-682.99" width="180" height="111.99" as="geometry" />
        </mxCell>
        <mxCell id="e_CbiDaFC-PkxXrUrueo-2" style="edgeStyle=orthogonalEdgeStyle;rounded=0;orthogonalLoop=1;jettySize=auto;html=1;entryX=0;entryY=0.5;entryDx=0;entryDy=0;" edge="1" parent="1" source="yHcybCInTjZqwP-2r2IU-14" target="e_CbiDaFC-PkxXrUrueo-1">
          <mxGeometry relative="1" as="geometry" />
        </mxCell>
        <mxCell id="yHcybCInTjZqwP-2r2IU-14" value="&lt;font style=&quot;&quot;&gt;&lt;span style=&quot;font-size: 18px;&quot;&gt;&lt;b&gt;BCCS_GW (Internal)&lt;/b&gt;&lt;/span&gt;&lt;br&gt;&lt;div style=&quot;&quot;&gt;&lt;div style=&quot;&quot;&gt;&lt;span style=&quot;font-size: 14px;&quot;&gt;LB:&amp;nbsp;&lt;/span&gt;&lt;span style=&quot;background-color: initial; font-size: 11pt; font-family: Aptos, sans-serif;&quot;&gt;10.79.7.100&lt;/span&gt;&lt;span style=&quot;background-color: initial; font-size: 14px;&quot;&gt;:9300&lt;/span&gt;&lt;/div&gt;&lt;div style=&quot;&quot;&gt;&lt;span style=&quot;font-size: 14px;&quot;&gt;Node1: 10.79.7.52:9300&lt;/span&gt;&lt;/div&gt;&lt;div style=&quot;&quot;&gt;&lt;span style=&quot;font-size: 14px;&quot;&gt;Node1: 10.79.7.52:9301&lt;/span&gt;&lt;/div&gt;&lt;div style=&quot;&quot;&gt;&lt;span style=&quot;font-size: 14px;&quot;&gt;Node1: 10.79.7.52:9302&lt;/span&gt;&lt;/div&gt;&lt;div style=&quot;&quot;&gt;&lt;span style=&quot;font-size: 14px;&quot;&gt;&lt;br&gt;&lt;/span&gt;&lt;/div&gt;&lt;div style=&quot;&quot;&gt;&lt;span style=&quot;font-size: 14px;&quot;&gt;Node2: 10.79.7.53:9300&lt;/span&gt;&lt;/div&gt;&lt;div style=&quot;&quot;&gt;&lt;span style=&quot;font-size: 14px;&quot;&gt;Node2: 10.79.7.53:9301&lt;/span&gt;&lt;/div&gt;&lt;div style=&quot;&quot;&gt;&lt;span style=&quot;font-size: 14px;&quot;&gt;Node2: 10.79.7.53:9302&lt;/span&gt;&lt;/div&gt;&lt;/div&gt;&lt;/font&gt;" style="rounded=0;whiteSpace=wrap;html=1;strokeColor=#6c8ebf;fillColor=#dae8fc;" parent="1" vertex="1">
          <mxGeometry x="114" y="-966" width="180" height="188.99" as="geometry" />
        </mxCell>
        <mxCell id="yHcybCInTjZqwP-2r2IU-27" value="&lt;b style=&quot;font-size: 18px;&quot;&gt;DB BCCSGW_GLOBAL&lt;/b&gt;&lt;div&gt;&lt;span style=&quot;font-size: 14px;&quot;&gt;10.79.132.131:1521&lt;/span&gt;&lt;br style=&quot;font-size: 14px;&quot;&gt;&lt;span style=&quot;font-size: 14px;&quot;&gt;10.79.132.133:1521&lt;/span&gt;&lt;br&gt;&lt;/div&gt;" style="shape=cylinder3;whiteSpace=wrap;html=1;boundedLbl=1;backgroundOutline=1;size=15;strokeColor=#d79b00;fillColor=#1BA1E2;" parent="1" vertex="1">
          <mxGeometry x="-927" y="-940" width="130" height="150" as="geometry" />
        </mxCell>
        <mxCell id="l0j6yrxoB1ChM4racw-r-1" style="edgeStyle=orthogonalEdgeStyle;rounded=0;orthogonalLoop=1;jettySize=auto;html=1;entryX=0.5;entryY=1;entryDx=0;entryDy=0;entryPerimeter=0;" parent="1" source="Iy-bXk118ixpe8IklF_D-7" target="yHcybCInTjZqwP-2r2IU-27" edge="1">
          <mxGeometry relative="1" as="geometry" />
        </mxCell>
        <mxCell id="l0j6yrxoB1ChM4racw-r-4" value="&lt;br&gt;&lt;br&gt;&lt;br&gt;&lt;br&gt;&lt;br&gt;&lt;br&gt;&lt;br&gt;&lt;br&gt;&lt;br&gt;&lt;br&gt;&lt;br&gt;&lt;br&gt;&lt;br&gt;&lt;br&gt;&lt;br&gt;&lt;br&gt;&lt;br&gt;&lt;br&gt;&lt;br&gt;&lt;span style=&quot;font-size: 25px;&quot;&gt;&lt;b&gt;WEBSERVICE&lt;/b&gt;&lt;/span&gt;" style="rounded=0;whiteSpace=wrap;html=1;fillColor=#d5e8d4;strokeColor=#82b366;" parent="1" vertex="1">
          <mxGeometry x="-589" y="-780" width="230" height="310" as="geometry" />
        </mxCell>
        <mxCell id="FRnl1vGxgCyEHnlj_Q-G-4" value="&lt;div&gt;&lt;div style=&quot;&quot;&gt;&lt;b style=&quot;background-color: initial;&quot;&gt;&lt;font style=&quot;font-size: 18px;&quot;&gt;WS_CDBR&lt;/font&gt;&lt;/b&gt;&lt;br&gt;&lt;/div&gt;&lt;/div&gt;&lt;div&gt;&lt;span style=&quot;font-family: Aptos, sans-serif; font-size: 14.6667px;&quot;&gt;LB: 100.99.1.4:8582&lt;/span&gt;&lt;/div&gt;&lt;div&gt;&lt;span style=&quot;font-family: Aptos, sans-serif; font-size: 14.6667px;&quot;&gt;Node1: 100.99.1.106:8582&lt;/span&gt;&lt;font face=&quot;Aptos, sans-serif&quot;&gt;&lt;span style=&quot;font-size: 14.6667px;&quot;&gt;&lt;br&gt;&lt;/span&gt;&lt;/font&gt;&lt;/div&gt;&lt;font face=&quot;Aptos, sans-serif&quot;&gt;&lt;span style=&quot;font-size: 14.6667px;&quot;&gt;Node2: 100.99.1.107:8582&lt;/span&gt;&lt;/font&gt;&lt;div&gt;&lt;span style=&quot;font-family: Aptos, sans-serif; font-size: 14.6667px;&quot;&gt;Node3: 100.99.1.108:8582&lt;/span&gt;&lt;font face=&quot;Aptos, sans-serif&quot;&gt;&lt;span style=&quot;font-size: 14.6667px;&quot;&gt;&lt;br&gt;&lt;/span&gt;&lt;/font&gt;&lt;/div&gt;" style="rounded=0;whiteSpace=wrap;html=1;fontSize=14;fillColor=#dae8fc;strokeColor=#6c8ebf;" parent="1" vertex="1">
          <mxGeometry x="-569" y="-762.91" width="190" height="103.98" as="geometry" />
        </mxCell>
        <mxCell id="FRnl1vGxgCyEHnlj_Q-G-13" value="&lt;div&gt;&lt;div style=&quot;&quot;&gt;&lt;span style=&quot;background-color: initial;&quot;&gt;&lt;b style=&quot;&quot;&gt;&lt;font style=&quot;font-size: 18px;&quot;&gt;BRCD_V2&lt;/font&gt;&lt;/b&gt;&lt;/span&gt;&lt;br&gt;&lt;/div&gt;&lt;/div&gt;&lt;div&gt;&lt;span style=&quot;font-family: Aptos, sans-serif; font-size: 14.6667px;&quot;&gt;LB: 100.99.1.4:8583&lt;/span&gt;&lt;/div&gt;&lt;div&gt;&lt;span style=&quot;font-family: Aptos, sans-serif; font-size: 14.6667px;&quot;&gt;Node1: 100.99.1.106:8583&lt;/span&gt;&lt;font face=&quot;Aptos, sans-serif&quot;&gt;&lt;span style=&quot;font-size: 14.6667px;&quot;&gt;&lt;br&gt;&lt;/span&gt;&lt;/font&gt;&lt;/div&gt;&lt;font face=&quot;Aptos, sans-serif&quot;&gt;&lt;span style=&quot;font-size: 14.6667px;&quot;&gt;Node2: 100.99.1.107:8583&lt;/span&gt;&lt;/font&gt;&lt;div&gt;&lt;span style=&quot;font-family: Aptos, sans-serif; font-size: 14.6667px;&quot;&gt;Node3: 100.99.1.108:8583&lt;/span&gt;&lt;font face=&quot;Aptos, sans-serif&quot;&gt;&lt;span style=&quot;font-size: 14.6667px;&quot;&gt;&lt;br&gt;&lt;/span&gt;&lt;/font&gt;&lt;/div&gt;" style="rounded=0;whiteSpace=wrap;html=1;fontSize=14;fillColor=#dae8fc;strokeColor=#6c8ebf;" parent="1" vertex="1">
          <mxGeometry x="-569" y="-630" width="190" height="103.98" as="geometry" />
        </mxCell>
        <mxCell id="d86S9ypuE0y8z_9dzZQ--19" style="rounded=0;orthogonalLoop=1;jettySize=auto;html=1;entryX=0;entryY=0.5;entryDx=0;entryDy=0;exitX=1;exitY=0.5;exitDx=0;exitDy=0;" parent="1" source="Iy-bXk118ixpe8IklF_D-6" target="FRnl1vGxgCyEHnlj_Q-G-4" edge="1">
          <mxGeometry relative="1" as="geometry">
            <mxPoint x="-610" y="-736" as="targetPoint" />
          </mxGeometry>
        </mxCell>
        <mxCell id="FRnl1vGxgCyEHnlj_Q-G-8" style="rounded=0;orthogonalLoop=1;jettySize=auto;html=1;entryX=0;entryY=0.5;entryDx=0;entryDy=0;exitX=1;exitY=0.5;exitDx=0;exitDy=0;" parent="1" source="Iy-bXk118ixpe8IklF_D-6" target="FRnl1vGxgCyEHnlj_Q-G-13" edge="1">
          <mxGeometry relative="1" as="geometry">
            <mxPoint x="-610" y="-585" as="targetPoint" />
          </mxGeometry>
        </mxCell>
        <mxCell id="l0j6yrxoB1ChM4racw-r-9" style="rounded=0;orthogonalLoop=1;jettySize=auto;html=1;entryX=0;entryY=0.5;entryDx=0;entryDy=0;exitX=0.997;exitY=0.506;exitDx=0;exitDy=0;exitPerimeter=0;" parent="1" source="l0j6yrxoB1ChM4racw-r-5" target="l0j6yrxoB1ChM4racw-r-8" edge="1">
          <mxGeometry relative="1" as="geometry">
            <mxPoint x="-289" y="-652" as="sourcePoint" />
            <mxPoint x="-266" y="-863" as="targetPoint" />
          </mxGeometry>
        </mxCell>
        <mxCell id="l0j6yrxoB1ChM4racw-r-15" style="rounded=0;orthogonalLoop=1;jettySize=auto;html=1;entryX=0;entryY=0.5;entryDx=0;entryDy=0;exitX=0.988;exitY=0.492;exitDx=0;exitDy=0;exitPerimeter=0;" parent="1" source="l0j6yrxoB1ChM4racw-r-5" target="l0j6yrxoB1ChM4racw-r-14" edge="1">
          <mxGeometry relative="1" as="geometry" />
        </mxCell>
        <mxCell id="l0j6yrxoB1ChM4racw-r-18" style="rounded=0;orthogonalLoop=1;jettySize=auto;html=1;entryX=0;entryY=0.5;entryDx=0;entryDy=0;exitX=1.004;exitY=0.513;exitDx=0;exitDy=0;exitPerimeter=0;" parent="1" source="l0j6yrxoB1ChM4racw-r-5" target="l0j6yrxoB1ChM4racw-r-17" edge="1">
          <mxGeometry relative="1" as="geometry" />
        </mxCell>
        <mxCell id="l0j6yrxoB1ChM4racw-r-20" style="rounded=0;orthogonalLoop=1;jettySize=auto;html=1;entryX=0;entryY=0.5;entryDx=0;entryDy=0;exitX=0.988;exitY=0.492;exitDx=0;exitDy=0;exitPerimeter=0;" parent="1" source="l0j6yrxoB1ChM4racw-r-5" target="l0j6yrxoB1ChM4racw-r-19" edge="1">
          <mxGeometry relative="1" as="geometry" />
        </mxCell>
        <mxCell id="l0j6yrxoB1ChM4racw-r-21" style="rounded=0;orthogonalLoop=1;jettySize=auto;html=1;entryX=0;entryY=0.5;entryDx=0;entryDy=0;exitX=0.971;exitY=0.513;exitDx=0;exitDy=0;exitPerimeter=0;" parent="1" source="l0j6yrxoB1ChM4racw-r-5" target="l0j6yrxoB1ChM4racw-r-16" edge="1">
          <mxGeometry relative="1" as="geometry" />
        </mxCell>
        <mxCell id="l0j6yrxoB1ChM4racw-r-23" style="rounded=0;orthogonalLoop=1;jettySize=auto;html=1;entryX=0;entryY=0.5;entryDx=0;entryDy=0;exitX=0.996;exitY=0.517;exitDx=0;exitDy=0;exitPerimeter=0;" parent="1" source="l0j6yrxoB1ChM4racw-r-5" target="l0j6yrxoB1ChM4racw-r-22" edge="1">
          <mxGeometry relative="1" as="geometry" />
        </mxCell>
        <mxCell id="l0j6yrxoB1ChM4racw-r-5" value="&lt;font style=&quot;font-size: 18px;&quot;&gt;&lt;b&gt;Queue&lt;/b&gt;&lt;/font&gt;" style="image;aspect=fixed;html=1;points=[];align=center;fontSize=12;image=img/lib/azure2/general/Storage_Queue.svg;" parent="1" vertex="1">
          <mxGeometry x="-243.00000000000006" y="-652" width="64" height="52" as="geometry" />
        </mxCell>
        <mxCell id="l0j6yrxoB1ChM4racw-r-6" style="rounded=0;orthogonalLoop=1;jettySize=auto;html=1;entryX=0.005;entryY=0.502;entryDx=0;entryDy=0;entryPerimeter=0;exitX=1;exitY=0.5;exitDx=0;exitDy=0;" parent="1" source="l0j6yrxoB1ChM4racw-r-4" target="l0j6yrxoB1ChM4racw-r-5" edge="1">
          <mxGeometry relative="1" as="geometry" />
        </mxCell>
        <mxCell id="l0j6yrxoB1ChM4racw-r-7" value="&lt;font style=&quot;font-size: 14px;&quot;&gt;&lt;span style=&quot;font-size: 18px;&quot;&gt;&lt;b&gt;IMT&lt;/b&gt;&lt;/span&gt;&lt;br&gt;&lt;div&gt;10.79.9.144:80&lt;/div&gt;&lt;div&gt;&lt;font color=&quot;#ff0000&quot;&gt;10.79.9.145:80&lt;/font&gt;&lt;br&gt;&lt;/div&gt;&lt;/font&gt;" style="rounded=0;whiteSpace=wrap;html=1;strokeColor=#6c8ebf;fillColor=#dae8fc;" parent="1" vertex="1">
          <mxGeometry x="114" y="-112" width="180" height="73" as="geometry" />
        </mxCell>
        <mxCell id="l0j6yrxoB1ChM4racw-r-8" value="&lt;font style=&quot;font-size: 14px;&quot;&gt;&lt;span style=&quot;font-size: 18px;&quot;&gt;&lt;b&gt;FTP Server&lt;/b&gt;&lt;/span&gt;&lt;br&gt;&lt;div&gt;&lt;span style=&quot;background-color: initial;&quot;&gt;10.79.120.56:20&lt;/span&gt;&lt;br&gt;&lt;/div&gt;&lt;div&gt;10.79.120.56:21&lt;br&gt;&lt;/div&gt;&lt;/font&gt;" style="rounded=0;whiteSpace=wrap;html=1;strokeColor=#6c8ebf;fillColor=#dae8fc;" parent="1" vertex="1">
          <mxGeometry x="114" y="-554" width="180" height="66" as="geometry" />
        </mxCell>
        <mxCell id="l0j6yrxoB1ChM4racw-r-13" style="edgeStyle=orthogonalEdgeStyle;rounded=0;orthogonalLoop=1;jettySize=auto;html=1;entryX=0;entryY=0.5;entryDx=0;entryDy=0;" parent="1" source="l0j6yrxoB1ChM4racw-r-10" target="l0j6yrxoB1ChM4racw-r-7" edge="1">
          <mxGeometry relative="1" as="geometry" />
        </mxCell>
        <mxCell id="l0j6yrxoB1ChM4racw-r-10" value="&lt;font style=&quot;&quot;&gt;&lt;font size=&quot;1&quot; style=&quot;&quot;&gt;&lt;b style=&quot;font-size: 18px;&quot;&gt;ConfigIMTProcess&lt;/b&gt;&lt;/font&gt;&lt;br&gt;&lt;span style=&quot;font-size: 14px;&quot;&gt;Node1:&amp;nbsp;&lt;/span&gt;100.99.1.105&lt;br&gt;&lt;span style=&quot;font-size: 14px;&quot;&gt;Node2:&amp;nbsp;&lt;/span&gt;100.99.1.106&lt;br&gt;Node3:&amp;nbsp;&lt;/font&gt;100.99.1.107" style="rounded=0;whiteSpace=wrap;html=1;fillColor=#dae8fc;strokeColor=#6c8ebf;" parent="1" vertex="1">
          <mxGeometry x="-477" y="-120" width="186" height="90" as="geometry" />
        </mxCell>
        <mxCell id="l0j6yrxoB1ChM4racw-r-11" style="edgeStyle=orthogonalEdgeStyle;rounded=0;orthogonalLoop=1;jettySize=auto;html=1;entryX=0.5;entryY=1;entryDx=0;entryDy=0;entryPerimeter=0;" parent="1" source="l0j6yrxoB1ChM4racw-r-10" target="d86S9ypuE0y8z_9dzZQ--55" edge="1">
          <mxGeometry relative="1" as="geometry" />
        </mxCell>
        <mxCell id="l0j6yrxoB1ChM4racw-r-14" value="&lt;font style=&quot;font-size: 14px;&quot;&gt;&lt;span style=&quot;font-size: 18px;&quot;&gt;&lt;b&gt;VSA&lt;/b&gt;&lt;/span&gt;&lt;br&gt;&lt;div&gt;10.79.120.21:8899&lt;br&gt;&lt;/div&gt;&lt;div&gt;10.79.120.21:8885&lt;/div&gt;&lt;/font&gt;" style="rounded=0;whiteSpace=wrap;html=1;strokeColor=#6c8ebf;fillColor=#dae8fc;" parent="1" vertex="1">
          <mxGeometry x="114" y="-472" width="180" height="63" as="geometry" />
        </mxCell>
        <mxCell id="l0j6yrxoB1ChM4racw-r-16" value="&lt;font style=&quot;&quot;&gt;&lt;span style=&quot;font-size: 18px;&quot;&gt;&lt;b&gt;BundleTV&lt;/b&gt;&lt;/span&gt;&lt;br&gt;&lt;div style=&quot;font-size: 14px;&quot;&gt;&lt;span style=&quot;text-align: left; background-color: initial;&quot;&gt;10.7&lt;/span&gt;&lt;span style=&quot;text-align: left; background-color: initial;&quot;&gt;9.120.188:8003&lt;/span&gt;&lt;/div&gt;&lt;/font&gt;" style="rounded=0;whiteSpace=wrap;html=1;strokeColor=#6c8ebf;fillColor=#dae8fc;" parent="1" vertex="1">
          <mxGeometry x="114" y="-216" width="180" height="86" as="geometry" />
        </mxCell>
        <mxCell id="l0j6yrxoB1ChM4racw-r-17" value="&lt;font style=&quot;font-size: 14px;&quot;&gt;&lt;span style=&quot;font-size: 18px;&quot;&gt;&lt;b&gt;ePayment&lt;/b&gt;&lt;/span&gt;&lt;/font&gt;&lt;div&gt;&lt;font style=&quot;&quot;&gt;&lt;div style=&quot;font-size: 14px;&quot;&gt;10.79.94.35:8080&lt;/div&gt;&lt;/font&gt;&lt;/div&gt;" style="rounded=0;whiteSpace=wrap;html=1;strokeColor=#6c8ebf;fillColor=#dae8fc;" parent="1" vertex="1">
          <mxGeometry x="114" y="-392" width="180" height="63" as="geometry" />
        </mxCell>
        <mxCell id="l0j6yrxoB1ChM4racw-r-19" value="&lt;font style=&quot;font-size: 14px;&quot;&gt;&lt;span style=&quot;font-size: 18px;&quot;&gt;&lt;b&gt;LB BCCS_GW (cũ)&lt;/b&gt;&lt;/span&gt;&lt;/font&gt;&lt;div&gt;&lt;font style=&quot;&quot;&gt;&lt;div style=&quot;font-size: 14px;&quot;&gt;10.79.120.26:8068&lt;/div&gt;&lt;/font&gt;&lt;/div&gt;" style="rounded=0;whiteSpace=wrap;html=1;strokeColor=#6c8ebf;fillColor=#dae8fc;" parent="1" vertex="1">
          <mxGeometry x="114" y="-762.8399999999999" width="180" height="63" as="geometry" />
        </mxCell>
        <mxCell id="l0j6yrxoB1ChM4racw-r-22" value="&lt;font style=&quot;&quot;&gt;&lt;span style=&quot;font-size: 18px;&quot;&gt;&lt;b&gt;Webservice&lt;/b&gt;&lt;/span&gt;&lt;br&gt;&lt;div style=&quot;text-align: left;&quot;&gt;&lt;span style=&quot;font-size: 14px;&quot;&gt;Register:10.79.123.179:8138&lt;/span&gt;&lt;br&gt;&lt;/div&gt;&lt;div style=&quot;&quot;&gt;&lt;span style=&quot;font-size: 14px;&quot;&gt;UnRegis:10.79.123.179:8145&lt;/span&gt;&lt;br&gt;&lt;/div&gt;&lt;div style=&quot;&quot;&gt;&lt;span style=&quot;font-size: 14px;&quot;&gt;Block:&amp;nbsp;&lt;/span&gt;&lt;span style=&quot;background-color: initial; font-size: 14px;&quot;&gt;192.168.131.66:9876&lt;/span&gt;&lt;/div&gt;&lt;/font&gt;" style="rounded=0;whiteSpace=wrap;html=1;strokeColor=#6c8ebf;fillColor=#dae8fc;" parent="1" vertex="1">
          <mxGeometry x="114" y="-310" width="180" height="80" as="geometry" />
        </mxCell>
        <mxCell id="e_CbiDaFC-PkxXrUrueo-1" value="&lt;font style=&quot;&quot;&gt;&lt;span style=&quot;font-size: 18px;&quot;&gt;&lt;b&gt;TV360&lt;/b&gt;&lt;/span&gt;&lt;div style=&quot;&quot;&gt;&lt;span style=&quot;font-size: 14px;&quot;&gt;&lt;font color=&quot;#ff0000&quot;&gt;10.79.32.202:80&lt;/font&gt;&lt;/span&gt;&lt;br&gt;&lt;/div&gt;&lt;div style=&quot;&quot;&gt;&lt;span style=&quot;color: rgb(255, 0, 0); font-size: 14px;&quot;&gt;10.79.32.207:80&lt;/span&gt;&lt;span style=&quot;font-size: 14px;&quot;&gt;&lt;font color=&quot;#ff0000&quot;&gt;&lt;br&gt;&lt;/font&gt;&lt;/span&gt;&lt;/div&gt;&lt;div style=&quot;&quot;&gt;&lt;span style=&quot;color: rgb(255, 0, 0); font-size: 14px;&quot;&gt;10.79.32.202:443&lt;/span&gt;&lt;span style=&quot;font-size: 14px;&quot;&gt;&lt;font color=&quot;#ff0000&quot;&gt;&lt;br&gt;&lt;/font&gt;&lt;/span&gt;&lt;/div&gt;&lt;div style=&quot;&quot;&gt;&lt;span style=&quot;color: rgb(255, 0, 0); font-size: 14px;&quot;&gt;10.79.32.207:443&lt;/span&gt;&lt;span style=&quot;color: rgb(255, 0, 0); font-size: 14px;&quot;&gt;&lt;br&gt;&lt;/span&gt;&lt;/div&gt;&lt;/font&gt;" style="rounded=0;whiteSpace=wrap;html=1;strokeColor=#6c8ebf;fillColor=#dae8fc;" vertex="1" parent="1">
          <mxGeometry x="390" y="-922" width="180" height="101" as="geometry" />
        </mxCell>
      </root>
    </mxGraphModel>
  </diagram>
</mxfile>
